<?xml version="1.0" standalone="no"?>
<!DOCTYPE svg PUBLIC "-//W3C//DTD SVG 20010904//EN"
 "http://www.w3.org/TR/2001/REC-SVG-20010904/DTD/svg10.dtd">
<svg version="1.0" xmlns="http://www.w3.org/2000/svg"
 width="128.000000pt" height="128.000000pt" viewBox="0 0 5005.000000 2186.000000"
 preserveAspectRatio="xMidYMid meet">

<g transform="translate(0.000000,2186.000000) scale(0.100000,-0.100000)"
fill="#000000" stroke="none">
<path d="M7947 19973 c-4 -3 -7 -60 -7 -125 l0 -118 15143 0 15142 0 2173
-2173 2172 -2172 0 -1505 0 -1506 -35 -13 c-58 -21 -148 -112 -181 -183 -26
-56 -29 -74 -29 -158 0 -84 4 -103 29 -158 37 -80 122 -161 203 -193 43 -17
79 -22 138 -22 59 0 95 5 138 22 81 32 166 113 203 193 26 56 29 74 29 158 0
84 -3 102 -29 158 -33 71 -123 162 -181 183 l-35 13 0 1556 0 1555 -2247 2247
-2248 2248 -15186 0 c-8352 0 -15189 -3 -15192 -7z"/>
<path d="M23692 18852 l-14253 -2 3 -123 3 -122 14205 -3 14205 -2 1792 -1792
1793 -1793 0 -3757 0 -3756 -53 -30 c-122 -69 -190 -187 -190 -327 0 -150 75
-270 211 -337 61 -30 74 -33 162 -33 88 0 101 3 162 33 136 67 211 187 211
337 0 140 -68 258 -190 327 l-53 30 0 3801 0 3802 -1877 1875 -1878 1875
-14253 -3z"/>
<path d="M10947 17723 c-4 -3 -7 -60 -7 -125 l0 -118 13267 0 13268 0 1422
-1422 1423 -1423 0 -2066 0 -2066 -42 -19 c-61 -27 -144 -113 -176 -181 -24
-51 -27 -70 -27 -158 0 -88 3 -107 27 -157 34 -74 112 -152 186 -186 50 -24
69 -27 157 -27 88 0 107 3 157 27 74 34 152 112 186 186 24 50 27 69 27 157 0
88 -3 107 -27 158 -32 68 -115 154 -176 181 l-42 19 0 2116 0 2116 -1498 1498
-1497 1497 -13311 0 c-7321 0 -13314 -3 -13317 -7z"/>
<path d="M11320 12022 l0 -4127 1128 -1128 1127 -1127 12748 0 12747 0 0 4128
0 4127 -1128 1128 -1127 1127 -12748 0 -12747 0 0 -4128z m4664 1538 c467 -71
848 -243 1125 -506 291 -277 447 -634 470 -1080 l6 -124 -430 0 -431 0 -12
103 c-31 258 -127 451 -295 587 -77 64 -235 142 -349 174 -264 75 -656 84
-959 22 -215 -44 -357 -115 -484 -241 -125 -124 -166 -221 -166 -397 0 -111
11 -160 54 -241 98 -186 350 -292 1107 -467 969 -224 1325 -364 1637 -642 238
-213 351 -407 419 -718 27 -122 27 -487 1 -610 -65 -303 -197 -548 -407 -760
-327 -329 -749 -516 -1289 -570 -131 -13 -459 -13 -616 0 -785 66 -1312 335
-1651 843 -189 282 -304 663 -304 1005 l0 82 424 0 425 0 6 -57 c11 -111 38
-249 61 -321 100 -305 333 -520 708 -651 289 -102 723 -127 1047 -61 325 67
575 224 684 431 51 97 69 175 69 304 0 186 -48 309 -163 423 -52 52 -87 74
-195 127 -210 103 -580 218 -996 310 -575 128 -848 214 -1130 355 -506 254
-760 651 -760 1190 0 494 222 895 655 1185 246 165 564 277 895 314 52 6 109
13 125 15 17 2 154 3 305 1 218 -3 304 -8 414 -25z m8306 -465 l0 -405 -845 0
-845 0 0 -2260 0 -2260 -445 0 -445 0 0 2260 0 2260 -845 0 -845 0 0 405 0
405 2135 0 2135 0 0 -405z m3490 -2260 l0 -2665 -440 0 -440 0 0 2665 0 2665
440 0 440 0 0 -2665z m5920 2642 c269 -36 513 -98 641 -162 199 -101 362 -251
499 -460 299 -458 340 -1109 100 -1585 -68 -134 -138 -230 -254 -345 -141
-140 -329 -263 -508 -330 -27 -10 -48 -20 -47 -24 0 -3 34 -31 76 -61 90 -65
198 -180 289 -305 127 -177 198 -343 519 -1215 164 -443 299 -808 302 -812 2
-5 -211 -8 -474 -8 l-479 0 -258 733 c-142 402 -273 765 -291 804 -55 119
-141 241 -239 338 -183 181 -374 275 -616 305 -50 6 -331 10 -682 10 l-598 0
0 -1095 0 -1095 -445 0 -445 0 0 2665 0 2666 1393 -4 c1231 -3 1406 -5 1517
-20z m-14260 -4847 l0 -460 -465 0 -465 0 0 460 0 460 465 0 465 0 0 -460z
m6360 0 l0 -460 -465 0 -465 0 0 460 0 460 465 0 465 0 0 -460z m3990 0 l0
-460 -465 0 -465 0 0 460 0 460 465 0 465 0 0 -460z m7160 0 l0 -460 -465 0
-465 0 0 460 0 460 465 0 465 0 0 -460z"/>
<path d="M31680 11955 l0 -786 838 4 c706 3 854 6 946 20 517 77 705 262 723
712 8 217 -24 365 -106 491 -107 165 -281 266 -545 316 -106 20 -147 21 -983
25 l-873 4 0 -786z"/>
<path d="M8713 15006 c-108 -35 -205 -125 -244 -224 -17 -42 -22 -78 -22 -137
0 -140 68 -258 190 -327 l53 -30 0 -3801 0 -3802 1875 -1875 1875 -1875 14255
3 14256 2 -3 123 -3 122 -14205 3 -14205 2 -1792 1792 -1793 1793 0 3757 0
3756 53 30 c122 69 190 187 190 327 0 104 -27 176 -94 250 -73 79 -156 118
-262 122 -51 2 -98 -2 -124 -11z"/>
<path d="M9823 12002 c-101 -36 -180 -109 -225 -208 -19 -41 -23 -66 -23 -149
0 -88 3 -107 27 -158 32 -68 115 -154 176 -181 l42 -19 0 -2116 0 -2116 1498
-1498 1497 -1497 13315 2 13315 3 3 123 3 122 -13268 0 -13268 0 -1422 1422
-1423 1423 0 2066 0 2066 42 19 c61 27 144 113 176 181 24 51 27 70 27 158 0
88 -3 107 -27 157 -34 74 -113 152 -186 186 -76 35 -202 41 -279 14z"/>
<path d="M7602 10135 c-74 -21 -108 -41 -168 -97 -32 -30 -62 -72 -80 -111
-26 -55 -29 -73 -29 -157 0 -84 4 -103 29 -158 33 -71 123 -162 181 -183 l35
-13 0 -1556 0 -1555 2248 -2248 2247 -2247 15190 2 15190 3 3 123 3 122
-15143 0 -15143 0 -2173 2173 -2172 2172 0 1505 0 1506 35 13 c58 21 148 112
181 183 26 56 29 74 29 158 0 84 -3 102 -29 158 -74 161 -269 253 -434 207z"/>
</g>
</svg>
